<svg width="54" height="52" viewBox="0 0 54 52" fill="none" xmlns="http://www.w3.org/2000/svg">
<path d="M27.4744 1.04756L30.8186 0.157791L22.7628 30.2222L20.3115 27.7796L27.4744 1.04756Z" fill="#FF9900"/>
<path d="M20.7859 2.82706L17.4416 3.71682L12.9576 20.4515L15.4089 22.8942L20.7859 2.82706Z" fill="#FF9900"/>
<path d="M10.7532 5.49637L7.40891 6.38614L5.60365 13.1235L8.05497 15.5661L10.7532 5.49637Z" fill="#FF9900"/>
<path d="M3.8178 19.7883L2.92488 23.1208L20.0647 40.292L20.9576 36.9595L3.8178 19.7883Z" fill="#FF9900"/>
<path d="M0.226685 33.1906L1.11961 29.8581L18.2788 46.9569L17.3859 50.2893L0.226685 33.1906Z" fill="#FF9900"/>
<path d="M43.2469 46.5037L46.5911 45.6139L48.3964 38.8766L45.9451 36.4339L43.2469 46.5037Z" fill="#FF9900"/>
<path d="M36.5584 48.2832L33.2142 49.1729L38.5911 29.1058L41.0424 31.5485L36.5584 48.2832Z" fill="#FF9900"/>
<path d="M23.1814 51.8422L26.5257 50.9525L33.6885 24.2205L31.2372 21.7778L23.1814 51.8422Z" fill="#FF9900"/>
<path d="M51.0752 28.8792L50.1822 32.2117L33.0424 15.0405L33.9354 11.708L51.0752 28.8792Z" fill="#FF9900"/>
<path d="M52.8804 22.1419L53.7733 18.8095L36.6141 1.71071L35.7212 5.04315L52.8804 22.1419Z" fill="#FF9900"/>
</svg>
