<svg width="53" height="53" viewBox="0 0 53 53" fill="none" xmlns="http://www.w3.org/2000/svg">
<path d="M22.1813 1.15777L18.8177 0.195557L1.67789 17.3668L5.02213 18.2565L22.1813 1.15777Z" fill="#FF9900"/>
<path d="M32.2141 3.82706L28.8698 2.9373L11.7106 20.036L15.0743 20.9983L32.2141 3.82706Z" fill="#FF9900"/>
<path d="M1.03182 26.5468L0.119488 23.1419L23.5486 29.4427L24.4415 32.7751L1.03182 26.5468Z" fill="#FF9900"/>
<path d="M3.7106 36.5441L2.81767 33.2117L26.2468 39.5125L27.1397 42.8449L3.7106 36.5441Z" fill="#FF9900"/>
<path d="M5.51586 43.2814L6.40878 46.6139L29.8185 52.8422L28.9255 49.5098L5.51586 43.2814Z" fill="#FF9900"/>
<path d="M44.052 13.2337L46.4839 10.7185L52.7732 34.1905L50.3219 36.6332L44.052 13.2337Z" fill="#FF9900"/>
<path d="M39.1494 18.119L36.6981 20.5617L42.968 43.9613L45.4193 41.5186L39.1494 18.119Z" fill="#FF9900"/>
<path d="M29.3441 27.8898L31.7955 25.4471L38.0653 48.8466L35.614 51.2893L29.3441 27.8898Z" fill="#FF9900"/>
<path d="M38.9025 5.60661L42.2468 6.49637L25.107 23.6676L21.7627 22.7778L38.9025 5.60661Z" fill="#FF9900"/>
</svg>
