<svg width="53" height="53" viewBox="0 0 53 53" fill="none" xmlns="http://www.w3.org/2000/svg">
<path d="M47.9778 18.2565L33.2699 3.60045L13.2044 8.93903L10.7531 6.49636L34.1822 0.195557L51.322 17.3668L47.9778 18.2565Z" fill="#FF9900"/>
<path d="M3.57089 33.3008L8.94786 13.2337L6.51596 10.7185L0.22665 34.1905L17.3859 51.2893L18.2788 47.9569L3.57089 33.3008Z" fill="#FF9900"/>
<path d="M13.623 30.559L16.3018 20.5617L13.8505 18.119L10.2788 31.4488L20.0646 41.292L20.9576 37.9595L13.623 30.559Z" fill="#FF9900"/>
<path d="M44.1398 44.1712L49.5167 24.1041L52.8804 23.1419L46.5911 46.6139L23.1814 52.8422L24.0743 49.5098L44.1398 44.1712Z" fill="#FF9900"/>
<path d="M36.8052 36.7707L26.7531 39.5124L25.8602 42.8449L39.2566 39.2134L42.8283 25.8836L39.484 26.7734L36.8052 36.7707Z" fill="#FF9900"/>
<path d="M30.5911 13.5978L37.9256 20.9983L41.2893 20.0361L31.484 10.2654L18.1071 13.8244L20.539 16.3395L30.5911 13.5978Z" fill="#FF9900"/>
<path fill-rule="evenodd" clip-rule="evenodd" d="M22.0974 22.1146L28.7858 20.3351L33.6885 25.2205L31.9026 31.8853L25.2141 33.6649L20.3115 28.7795L22.0974 22.1146ZM30.3442 26.1102L27.8929 23.6675L24.5487 24.5573L23.6557 27.8898L26.1071 30.3324L29.4513 29.4427L30.3442 26.1102Z" fill="#FF9900"/>
</svg>
