<svg width="239" height="80" viewBox="0 0 239 80" fill="none" xmlns="http://www.w3.org/2000/svg">
<path d="M23.2406 79.9004H16.3433V45.5199H23.2406V79.9004ZM31.4109 38.4241H24.5151V79.9004H31.4109V38.4241ZM32.6869 79.9004H39.5796V45.5199H32.6869V79.9004Z" fill="#FFD200"/>
<path d="M6.89272 46.8723L0 40.7447V23.1204H6.89272V46.8723ZM15.0662 15.3294H8.17044V47.7658L15.0662 54.5369V15.3294ZM23.2407 7.66698H16.3433V44.4441H23.2407V7.66698ZM31.411 0H24.5152V36.9125H31.411V0ZM49.0302 46.8723L55.9214 40.7447V23.1204H49.0302V46.8723ZM40.8538 54.5369L47.7526 47.7658V15.3294H40.8538V54.5369ZM32.687 44.4441H39.5797V7.66698H32.687V44.4441Z" fill="#231F20"/>
<path d="M87.0634 69.1566C87.0634 68.1853 86.8617 67.4681 86.4584 67.0248C86.0551 66.5814 85.1593 66.3506 83.7617 66.3506H80.7971C79.5041 66.3506 78.6406 66.6 78.2081 67.0848C77.7756 67.5697 77.5601 68.2624 77.5601 69.1566V73.1771C77.5601 74.076 77.7756 74.7595 78.2081 75.2536C78.6406 75.7353 79.5041 75.9832 80.7971 75.9832H83.7617C85.1593 75.9832 86.0428 75.7584 86.4307 75.3136C86.8094 74.8657 87.0218 74.1669 87.0634 73.2079V69.1566ZM91.0608 78.6875C90.1926 79.5649 88.5749 79.9975 86.2122 79.9975H78.4652C76.1224 79.9975 74.4985 79.5819 73.5935 78.7353C72.6792 77.8949 72.2205 76.6173 72.2205 74.9119V67.4173C72.2205 65.7134 72.6792 64.442 73.5935 63.5938C74.4985 62.7534 76.1224 62.3316 78.4652 62.3316H86.2122C88.5749 62.3316 90.1926 62.7673 91.0608 63.64C91.9335 64.5173 92.3614 65.7734 92.3614 67.4173V74.9119C92.3614 76.5635 91.9335 77.8149 91.0608 78.6875ZM114.279 78.6875C113.412 79.5649 111.799 79.9975 109.442 79.9975H101.692C99.3465 79.9975 97.7257 79.5819 96.8129 78.7353C95.9017 77.8949 95.4522 76.6173 95.4522 74.9119V67.4173C95.4522 65.7134 95.9017 64.442 96.8129 63.5938C97.7257 62.7534 99.3465 62.3316 101.692 62.3316H109.442C111.799 62.3316 113.412 62.7673 114.279 63.64C115.154 64.5173 115.584 65.7734 115.584 67.4173V69.1566H110.286C110.286 68.1853 110.081 67.4681 109.681 67.0248C109.279 66.5814 108.382 66.3506 106.986 66.3506H104.018C102.728 66.3506 101.865 66.6 101.429 67.0848C101 67.5697 100.78 68.2624 100.78 69.1566V73.1771C100.78 74.076 101 74.7595 101.429 75.2536C101.865 75.7353 102.728 75.9832 104.018 75.9832H106.986C108.382 75.9832 109.279 75.7584 109.681 75.3136C110.081 74.8657 110.286 74.1499 110.286 73.1771H115.584V74.9119C115.584 76.5635 115.154 77.8149 114.279 78.6875ZM123.972 80H118.707L118.674 74.9128V67.4152L118.707 62.3312H123.972V69.0914H133.479V62.3312H138.809V67.4152V74.9128V80H133.479V73.1165H123.972V80ZM148.709 73.1163H147.198C147.216 74.0491 147.443 74.7602 147.878 75.2527C148.314 75.7361 149.173 75.9839 150.47 75.9839H153.435H162.035V79.9998H155.885H148.14C145.797 79.9998 144.167 79.5827 143.259 78.733C142.355 77.8941 141.9 76.6181 141.9 74.9126V67.4149C141.9 65.7125 142.355 64.4442 143.259 63.5946C144.167 62.7526 145.797 62.3309 148.14 62.3309H155.885H162.035V66.3514H153.435H150.47C149.173 66.3514 148.314 66.6022 147.878 67.0841C147.443 67.5689 147.216 68.2369 147.198 69.0912H148.709H162.035V73.1163H148.709ZM202.761 66.3513H195.494V62.3308H201.605H209.357H215.597V66.3513H208.03V79.9997H202.761V66.3513ZM170.208 71.1953C170.208 68.9911 172.051 69.2297 172.051 69.2297H177.394V72.9655H172.012C172.012 72.9655 170.208 73.0362 170.208 71.1953ZM188.024 72.9655H182.638V69.2297H187.982C187.982 69.2297 189.817 68.9911 189.817 71.1953C189.817 73.0362 188.024 72.9655 188.024 72.9655ZM190.827 65.497H182.638V62.2661H177.414V65.497H169.036C169.036 65.497 164.278 65.6418 164.278 71.0414C164.278 76.4472 169.166 76.4841 169.166 76.4841H177.414V79.9844H182.638V76.4841H190.693C190.693 76.4841 195.589 76.4472 195.589 71.0414C195.589 65.6418 190.827 65.497 190.827 65.497ZM62.1092 69.8904H54.3006V66.3516H62.1092C63.0835 66.3516 63.8778 67.1428 63.8778 68.1218C63.8778 69.0961 63.0835 69.8904 62.1092 69.8904ZM67.8383 63.6395C66.967 62.7668 65.3554 62.3312 62.9912 62.3312H49.0303V79.9986H54.3006V73.9078H62.9912C65.3554 73.9078 66.967 73.4737 67.8383 72.6026C68.7048 71.7282 69.1389 70.463 69.1389 68.8206V67.4183C69.1389 65.7744 68.7048 64.5168 67.8383 63.6395ZM232.804 74.209C232.804 75.1864 232.01 75.9775 231.036 75.9775H223.229V72.445H231.036C232.01 72.445 232.804 73.2331 232.804 74.209ZM238.067 74.9124V73.5132C238.067 71.8693 237.632 70.6071 236.763 69.7298C235.892 68.8555 234.282 68.426 231.916 68.426H223.229L223.226 62.3291H217.958V79.998H231.916C234.282 79.998 235.892 79.5655 236.763 78.6928C237.632 77.8138 238.067 76.5563 238.067 74.9124Z" fill="#231F20"/>
</svg>

