<svg width="206" height="65" viewBox="0 0 206 65" fill="none" xmlns="http://www.w3.org/2000/svg">
<path fill-rule="evenodd" clip-rule="evenodd" d="M7.70177 47.72C10.4738 44.108 14.1698 41.084 18.7898 38.48C19.7977 37.892 21.3095 37.1361 23.3253 36.1282C26.3493 34.6162 28.7018 33.356 30.2978 32.264C33.6578 29.996 36.0098 26.888 36.0098 21.932C36.0098 15.212 31.1378 10.34 23.4098 10.34C16.2698 10.34 11.2298 15.464 11.2298 21.512C11.2298 23.6929 12.0097 26.0298 13.3651 28.0727C13.7324 28.6264 14.142 29.1585 14.5898 29.66L7.02977 34.7C3.92177 30.836 2.40977 26.468 2.40977 21.68C2.40977 11.096 11.1458 2.35997 23.8298 2.35997C37.1858 2.35997 44.8298 10.34 44.8298 21.428C44.8298 30.584 39.9578 36.044 32.2298 40.496L27.6938 42.932C23.7458 45.032 20.8058 46.796 18.7898 48.224C17.4985 49.1784 16.5074 50.3205 15.8416 51.6C15.5112 52.2348 15.2609 52.9035 15.0938 53.6H44.8298V62H3.66977C3.66977 61.3169 3.68741 60.6503 3.72267 60C3.99529 54.9727 5.32166 50.9183 7.70177 47.72ZM18.1913 51.6H46.8298V64H1.66977V62C1.66977 55.7373 3.08372 50.5755 6.09731 46.526L6.10614 46.5141L6.11516 46.5023C9.0835 42.6345 13.0016 39.4483 17.7951 36.7448C18.8587 36.1254 20.4112 35.3492 22.3547 34.3774L22.4313 34.3391C25.4592 32.8252 27.6983 31.6192 29.1684 30.6134L29.1788 30.6062C32.1241 28.6182 34.0098 26.0743 34.0098 21.932C34.0098 19.0734 32.9844 16.7189 31.2362 15.0716C29.4812 13.4178 26.8495 12.34 23.4098 12.34C17.269 12.34 13.2298 16.671 13.2298 21.512C13.2298 23.7165 14.2544 26.2814 16.0817 28.3279L17.6159 30.0463L6.61755 37.3785L5.47135 35.9535C2.07819 31.735 0.409775 26.9249 0.409775 21.68C0.409775 9.8579 10.1796 0.35997 23.8298 0.35997C30.9067 0.35997 36.6857 2.48046 40.7114 6.28183C44.7445 10.0902 46.8298 15.4103 46.8298 21.428C46.8298 26.3941 45.4977 30.4596 43.0567 33.8863C40.6428 37.2751 37.225 39.9264 33.2281 42.229L33.2023 42.2439L28.633 44.6977C24.7312 46.7732 21.88 48.4878 19.9628 49.844C19.2459 50.3761 18.6568 50.9659 18.1913 51.6ZM56.7616 55.8567C52.2614 50.1489 49.8746 42.1099 49.8746 32.6C49.8746 23.09 52.2614 15.051 56.7616 9.3432C61.3009 3.58574 67.8727 0.35997 75.8146 0.35997C83.7566 0.35997 90.3284 3.58574 94.8677 9.3432C99.3679 15.051 101.755 23.09 101.755 32.6C101.755 42.1099 99.3679 50.1489 94.8677 55.8567C90.3284 61.6142 83.7566 64.84 75.8146 64.84C67.8727 64.84 61.3009 61.6142 56.7616 55.8567ZM85.2965 47.5747C87.643 43.8656 88.9346 38.8916 88.9346 32.6C88.9346 26.3084 87.643 21.3343 85.2965 17.6253C83.0482 14.0716 79.9809 12.34 75.8146 12.34C71.6339 12.34 68.4892 14.084 66.2488 17.6253C63.9104 21.3213 62.6946 26.2036 62.6946 32.6C62.6946 39.002 63.9127 43.9661 66.2488 47.6587C68.4753 51.178 71.6076 52.86 75.8146 52.86C79.9809 52.86 83.0482 51.1284 85.2965 47.5747ZM111.471 47.72C114.243 44.108 117.939 41.084 122.559 38.48C123.567 37.892 125.079 37.1361 127.095 36.1282C130.119 34.6162 132.471 33.356 134.067 32.264C137.427 29.996 139.779 26.888 139.779 21.932C139.779 15.212 134.907 10.34 127.179 10.34C120.039 10.34 114.999 15.464 114.999 21.512C114.999 23.6929 115.779 26.0298 117.135 28.0727C117.502 28.6264 117.912 29.1585 118.359 29.66L110.799 34.7C107.691 30.836 106.179 26.468 106.179 21.68C106.179 11.096 114.915 2.35997 127.599 2.35997C140.955 2.35997 148.599 10.34 148.599 21.428C148.599 30.584 143.727 36.044 135.999 40.496L131.463 42.932C127.515 45.032 124.575 46.796 122.559 48.224C121.268 49.1784 120.277 50.3205 119.611 51.6C119.281 52.2348 119.03 52.9035 118.863 53.6H148.599V62H107.439C107.439 61.3169 107.457 60.6503 107.492 60C107.765 54.9727 109.091 50.9183 111.471 47.72ZM121.961 51.6H150.599V64H105.439V62C105.439 55.7373 106.853 50.5755 109.867 46.526L109.876 46.5141L109.885 46.5023C112.853 42.6345 116.771 39.4483 121.565 36.7448C122.628 36.1255 124.181 35.3493 126.124 34.3776L126.201 34.3391C129.229 32.8252 131.468 31.6192 132.938 30.6134L132.948 30.6062C135.894 28.6182 137.779 26.0743 137.779 21.932C137.779 19.0734 136.754 16.7189 135.006 15.0716C133.251 13.4178 130.619 12.34 127.179 12.34C121.039 12.34 116.999 16.671 116.999 21.512C116.999 23.7165 118.024 26.2814 119.851 28.3279L121.385 30.0463L110.387 37.3785L109.241 35.9535C105.848 31.735 104.179 26.9249 104.179 21.68C104.179 9.8579 113.949 0.35997 127.599 0.35997C134.676 0.35997 140.455 2.48046 144.481 6.28183C148.514 10.0902 150.599 15.4103 150.599 21.428C150.599 26.3941 149.267 30.4596 146.826 33.8863C144.412 37.2751 140.995 39.9264 136.998 42.229L136.972 42.2439L132.403 44.6977C128.501 46.7732 125.649 48.4878 123.732 49.844C123.015 50.3761 122.426 50.9659 121.961 51.6ZM160.531 55.8567C156.031 50.1489 153.644 42.1099 153.644 32.6C153.644 23.09 156.031 15.051 160.531 9.3432C165.07 3.58574 171.642 0.35997 179.584 0.35997C187.526 0.35997 194.098 3.58574 198.637 9.3432C203.137 15.051 205.524 23.09 205.524 32.6C205.524 42.1099 203.137 50.1489 198.637 55.8567C194.098 61.6142 187.526 64.84 179.584 64.84C171.642 64.84 165.07 61.6142 160.531 55.8567ZM189.066 47.5747C191.413 43.8656 192.704 38.8916 192.704 32.6C192.704 26.3084 191.413 21.3343 189.066 17.6253C186.818 14.0716 183.75 12.34 179.584 12.34C175.403 12.34 172.259 14.084 170.018 17.6253C167.68 21.3213 166.464 26.2036 166.464 32.6C166.464 39.002 167.682 43.9661 170.018 47.6587C172.245 51.178 175.377 52.86 179.584 52.86C183.75 52.86 186.818 51.1284 189.066 47.5747ZM75.8146 62.84C61.1146 62.84 51.8746 50.996 51.8746 32.6C51.8746 14.204 61.1146 2.35997 75.8146 2.35997C90.5146 2.35997 99.7546 14.204 99.7546 32.6C99.7546 50.996 90.5146 62.84 75.8146 62.84ZM86.9866 48.644C89.5906 44.528 90.9346 39.152 90.9346 32.6C90.9346 26.048 89.5906 20.672 86.9866 16.556C84.3826 12.44 80.6866 10.34 75.8146 10.34C70.9426 10.34 67.1626 12.44 64.5586 16.556C61.9546 20.672 60.6946 25.964 60.6946 32.6C60.6946 39.236 61.9546 44.612 64.5586 48.728C67.1626 52.844 70.9426 54.86 75.8146 54.86C80.6866 54.86 84.3826 52.76 86.9866 48.644ZM179.584 62.84C164.884 62.84 155.644 50.996 155.644 32.6C155.644 14.204 164.884 2.35997 179.584 2.35997C194.284 2.35997 203.524 14.204 203.524 32.6C203.524 50.996 194.284 62.84 179.584 62.84ZM190.756 48.644C193.36 44.528 194.704 39.152 194.704 32.6C194.704 26.048 193.36 20.672 190.756 16.556C188.152 12.44 184.456 10.34 179.584 10.34C174.712 10.34 170.932 12.44 168.328 16.556C165.724 20.672 164.464 25.964 164.464 32.6C164.464 39.236 165.724 44.612 168.328 48.728C170.932 52.844 174.712 54.86 179.584 54.86C184.456 54.86 188.152 52.76 190.756 48.644Z" fill="url(#paint0_linear)"/>
<defs>
<linearGradient id="paint0_linear" x1="-1.0127" y1="37" x2="206.987" y2="37" gradientUnits="userSpaceOnUse">
<stop offset="0.5" stop-color="#FFD200"/>
<stop offset="1" stop-color="#FF9900"/>
</linearGradient>
</defs>
</svg>
