<svg width="22" height="22" viewBox="0 0 22 22" fill="none" xmlns="http://www.w3.org/2000/svg">
<path d="M11 0C4.9 0 0 4.9 0 11C0 17.1 4.9 22 11 22C17.1 22 22 17.1 22 11C22 4.9 17.1 0 11 0ZM19.1 7H15.5C15.5 6.9 15.5 6.8 15.4 6.7C15 5.2 14.3 3.7 13.4 2.3C15.9 3 17.9 4.8 19.1 7ZM14 11C14 11.7 14 12.3 13.9 13H8.1C8 12.3 8 11.7 8 11C8 10.3 8 9.7 8.1 9H13.8C14 9.7 14 10.3 14 11ZM8.6 7C9.1 5.3 9.9 3.7 11 2.3C12.1 3.7 12.9 5.3 13.4 7H8.6ZM13.4 15C12.9 16.7 12.1 18.3 11 19.7C9.9 18.3 9.1 16.7 8.6 15H13.4ZM8.5 2.3C7.7 3.7 7 5.2 6.6 6.7C6.6 6.8 6.6 6.9 6.5 7H2.9C4.1 4.8 6.1 3 8.5 2.3ZM2.2 9H6.1C6 9.7 6 10.3 6 11C6 11.7 6 12.3 6.1 13H2.2C2.1 12.4 2 11.7 2 11C2 10.3 2.1 9.6 2.2 9ZM2.9 15H6.5C6.5 15.1 6.5 15.2 6.6 15.3C7 16.8 7.7 18.3 8.6 19.7C6.1 19 4.1 17.2 2.9 15ZM13.5 19.7C14.4 18.3 15 16.9 15.5 15.3C15.5 15.2 15.5 15.1 15.6 15H19.2C17.9 17.2 15.9 19 13.5 19.7ZM19.8 13H15.9C16 12.3 16 11.7 16 11C16 10.3 16 9.7 15.9 9H19.8C19.9 9.6 20 10.3 20 11C20 11.7 19.9 12.4 19.8 13Z" fill="#231F20" fill-opacity="0.5"/>
</svg>
