<svg width="20" height="20" viewBox="0 0 20 20" fill="none" xmlns="http://www.w3.org/2000/svg">
<path d="M20 10.0001C19.9998 8.08906 19.4519 6.21815 18.4214 4.60882C17.3909 2.99948 15.9209 1.71912 14.1853 0.919315C12.4497 0.119508 10.5213 -0.166253 8.62838 0.0958623C6.73545 0.357978 4.95725 1.15699 3.50432 2.39832C2.05138 3.63964 0.984548 5.27128 0.430117 7.10008C-0.124314 8.92888 -0.143123 10.8783 0.375916 12.7174C0.894955 14.5566 1.9301 16.2085 3.35882 17.4776C4.78753 18.7468 6.54998 19.5799 8.4375 19.8785V12.8907H5.89844V10.0001H8.4375V7.79693C8.38297 7.28242 8.44224 6.7622 8.61113 6.27314C8.78001 5.78408 9.05437 5.33814 9.41477 4.96691C9.77517 4.59568 10.2128 4.30824 10.6966 4.12496C11.1805 3.94167 11.6987 3.86702 12.2146 3.9063C12.9646 3.91673 13.7127 3.98201 14.4531 4.10161V6.56255H13.1921C12.9773 6.53404 12.7587 6.55422 12.5527 6.6216C12.3467 6.68897 12.1585 6.80182 12.002 6.95178C11.8456 7.10174 11.7248 7.28498 11.6487 7.48793C11.5726 7.69088 11.5432 7.90835 11.5625 8.12422V10.0001H14.3359L13.8926 12.8907H11.5625V19.8785C13.9146 19.5059 16.0566 18.3064 17.6033 16.4956C19.15 14.6847 19.9998 12.3815 20 10.0001Z" fill="#231F20" fill-opacity="0.5"/>
</svg>
