<svg width="20" height="20" viewBox="0 0 20 20" fill="none" xmlns="http://www.w3.org/2000/svg">
<path d="M10 1.8018C12.6701 1.8018 12.9864 1.81199 14.0408 1.86009C14.675 1.86762 15.3031 1.98409 15.8977 2.20442C16.329 2.37079 16.7207 2.62561 17.0475 2.95247C17.3744 3.27934 17.6292 3.67101 17.7956 4.10229C18.0159 4.69694 18.1324 5.32503 18.1399 5.95914C18.188 7.01361 18.1982 7.32988 18.1982 10C18.1982 12.6701 18.188 12.9864 18.1399 14.0408C18.1324 14.675 18.0159 15.3031 17.7956 15.8977C17.6292 16.329 17.3744 16.7207 17.0475 17.0475C16.7207 17.3744 16.329 17.6292 15.8977 17.7956C15.3031 18.0159 14.675 18.1324 14.0408 18.1399C12.9865 18.188 12.6703 18.1982 10 18.1982C7.3297 18.1982 7.01346 18.188 5.95915 18.1399C5.32504 18.1324 4.69694 18.0159 4.10229 17.7956C3.67101 17.6292 3.27934 17.3744 2.95247 17.0475C2.62561 16.7207 2.37079 16.329 2.20442 15.8977C1.98409 15.3031 1.86762 14.675 1.86009 14.0409C1.812 12.9864 1.8018 12.6701 1.8018 10C1.8018 7.32988 1.81199 7.01361 1.86009 5.95915C1.86762 5.32504 1.98409 4.69694 2.20442 4.10229C2.37079 3.67101 2.6256 3.27934 2.95247 2.95247C3.27934 2.6256 3.67101 2.37079 4.10229 2.20442C4.69694 1.98409 5.32503 1.86762 5.95914 1.86009C7.01361 1.812 7.32988 1.8018 10 1.8018ZM10 0C7.28416 0 6.94362 0.0114999 5.877 0.0601699C5.04741 0.0767887 4.22665 0.23396 3.44961 0.525C2.78532 0.781918 2.18204 1.17478 1.67841 1.67841C1.17478 2.18204 0.781918 2.78532 0.525 3.44961C0.23396 4.22665 0.0767887 5.04741 0.0601699 5.877C0.0114999 6.94362 0 7.28415 0 10C0 12.7158 0.0114999 13.0564 0.0601699 14.123C0.0767887 14.9526 0.23396 15.7734 0.525 16.5504C0.781918 17.2147 1.17478 17.818 1.67841 18.3216C2.18204 18.8252 2.78532 19.2181 3.44961 19.475C4.22666 19.766 5.04743 19.9232 5.87702 19.9398C6.94362 19.9885 7.28416 20 10 20C12.7158 20 13.0564 19.9885 14.123 19.9398C14.9526 19.9232 15.7734 19.766 16.5504 19.475C17.2147 19.2181 17.818 18.8252 18.3216 18.3216C18.8252 17.818 19.2181 17.2147 19.475 16.5504C19.766 15.7733 19.9232 14.9526 19.9398 14.123C19.9885 13.0564 20 12.7158 20 10C20 7.28416 19.9885 6.94362 19.9398 5.877C19.9232 5.04741 19.766 4.22665 19.475 3.44961C19.2181 2.78532 18.8252 2.18204 18.3216 1.67841C17.818 1.17478 17.2147 0.781918 16.5504 0.525C15.7734 0.23396 14.9526 0.0767887 14.123 0.0601699C13.0564 0.0114999 12.7158 0 10 0ZM10 4.86486C8.98437 4.86486 7.99154 5.16603 7.14707 5.73029C6.3026 6.29454 5.64442 7.09654 5.25575 8.03487C4.86708 8.97319 4.76539 10.0057 4.96353 11.0018C5.16167 11.9979 5.65075 12.9129 6.36891 13.6311C7.08707 14.3493 8.00206 14.8383 8.99818 15.0365C9.9943 15.2346 11.0268 15.1329 11.9651 14.7443C12.9035 14.3556 13.7055 13.6974 14.2697 12.8529C14.834 12.0085 15.1351 11.0156 15.1351 10C15.1351 8.63808 14.5941 7.33193 13.6311 6.36891C12.6681 5.40588 11.3619 4.86486 10 4.86486ZM10 13.3333C9.34073 13.3333 8.69626 13.1378 8.1481 12.7716C7.59994 12.4053 7.1727 11.8847 6.9204 11.2756C6.66811 10.6665 6.6021 9.9963 6.73072 9.3497C6.85934 8.7031 7.17681 8.10915 7.64298 7.64298C8.10915 7.17681 8.7031 6.85934 9.3497 6.73072C9.9963 6.6021 10.6665 6.66811 11.2756 6.9204C11.8847 7.1727 12.4053 7.59994 12.7716 8.1481C13.1378 8.69626 13.3333 9.34073 13.3333 10C13.3333 10.8841 12.9821 11.7319 12.357 12.357C11.7319 12.9821 10.8841 13.3333 10 13.3333ZM15.338 3.462C15.1007 3.462 14.8687 3.53238 14.6713 3.66424C14.474 3.79609 14.3202 3.98351 14.2293 4.20278C14.1385 4.42205 14.1148 4.66333 14.1611 4.89611C14.2074 5.12889 14.3216 5.34271 14.4895 5.51053C14.6573 5.67835 14.8711 5.79264 15.1039 5.83894C15.3367 5.88524 15.5779 5.86148 15.7972 5.77066C16.0165 5.67983 16.2039 5.52602 16.3358 5.32868C16.4676 5.13135 16.538 4.89934 16.538 4.662C16.538 4.34374 16.4116 4.03852 16.1865 3.81347C15.9615 3.58843 15.6563 3.462 15.338 3.462Z" fill="#231F20" fill-opacity="0.5"/>
</svg>
