<svg width="22" height="14" viewBox="0 0 22 14" fill="none" xmlns="http://www.w3.org/2000/svg">
<path d="M21.4823 1.3615C21.6454 0.848911 21.4823 0.47612 20.76 0.47612H18.3601C18.1365 0.46383 17.9146 0.522556 17.7263 0.643909C17.538 0.765261 17.3929 0.943029 17.3116 1.15181C16.5613 2.92149 15.5651 4.57652 14.3526 6.06802C13.7934 6.62721 13.5371 6.81361 13.2342 6.81361C13.0711 6.81361 12.8614 6.62721 12.8614 6.11461V1.3382C12.8614 0.73241 12.675 0.45282 12.1624 0.45282H8.38788C8.31124 0.449123 8.23462 0.460718 8.1625 0.486929C8.09039 0.51314 8.02421 0.553443 7.96782 0.60549C7.91144 0.657536 7.86597 0.720285 7.83408 0.790078C7.8022 0.859872 7.78452 0.935315 7.78208 1.01201C7.78208 1.5945 8.64417 1.7343 8.73737 3.36527V6.90682C8.73737 7.67571 8.59757 7.81551 8.29468 7.81551C7.47919 7.81551 5.49868 4.80985 4.31044 1.3848C4.07744 0.70911 3.84444 0.4528 3.23865 0.4528H0.81549C0.1165 0.45281 0 0.77902 0 1.1285C0 1.7576 0.81549 4.92635 3.79785 9.12029C4.58228 10.3856 5.6575 11.4453 6.93407 12.2112C8.21065 12.9772 9.65166 13.4272 11.1372 13.5239C12.675 13.5239 12.8614 13.1744 12.8614 12.5919V10.4251C12.8614 9.72607 13.0012 9.60958 13.4905 9.60958C13.84 9.60958 14.4691 9.79598 15.8904 11.1707C17.5214 12.8017 17.801 13.5472 18.7096 13.5472H21.1095C21.8085 13.5472 22.1347 13.1977 21.9483 12.522C21.4358 11.475 20.7505 10.5219 19.9212 9.70278C19.362 9.05039 18.5232 8.3281 18.2669 7.97861C17.9174 7.51261 18.0106 7.32621 18.2669 6.90682C18.2436 6.90682 21.1794 2.75949 21.4823 1.3615Z" fill="#231F20" fill-opacity="0.5"/>
</svg>
