<svg width="24" height="22" viewBox="0 0 24 22" fill="none" xmlns="http://www.w3.org/2000/svg">
<path fill-rule="evenodd" clip-rule="evenodd" d="M20 0H4V3H0V7C0 9.61244 1.66962 11.8349 4 12.6586C4.3295 12.7751 4.67221 12.8635 5.02529 12.9212C6.24178 15.0804 8.43188 16.6179 11 16.9381V18C11 19.1046 10.1046 20 9 20H7V22H17V20H15C13.8954 20 13 19.1046 13 18V16.9381C15.5681 16.6179 17.7582 15.0804 18.9747 12.9212C19.3278 12.8635 19.6705 12.7751 20 12.6586C22.3304 11.8349 24 9.61244 24 7V3H20V0ZM6 9V2H18V9C18 12.3137 15.3137 15 12 15C8.68629 15 6 12.3137 6 9ZM2 5H4V10.4649C2.8044 9.77325 2 8.48056 2 7V5ZM20 10.4649C21.1956 9.77325 22 8.48056 22 7V5H20V10.4649Z" fill="#231F20"/>
</svg>
