<svg width="20" height="23" viewBox="0 0 20 23" fill="none" xmlns="http://www.w3.org/2000/svg">
<path d="M9.50912 21.8712C9.50912 21.8712 9.5098 21.8716 10.0001 21L10.4903 21.8716L10.0001 22.1473L9.50912 21.8712Z" fill="#231F20"/>
<path fill-rule="evenodd" clip-rule="evenodd" d="M9.99982 5C7.79076 5.0001 6 6.79092 6 9C6 11.2091 7.79083 13 9.99994 13C9.99996 13 9.99992 13 9.99994 13C12.2091 13 14 11.2091 14 9C14 6.79086 12.209 5 9.99982 5C9.99988 5 9.99976 5 9.99982 5ZM10 7C10 7 9.99995 7 10 7C11.1046 7 12 7.89543 12 9C12 10.1046 11.1046 11 10 11C9.99997 11 10 11 10 11C8.89547 11 8 10.1045 8 9C8 7.89548 8.8955 7.00008 10 7Z" fill="#231F20"/>
<path fill-rule="evenodd" clip-rule="evenodd" d="M9.50912 21.8712L10.0001 21C10.4903 21.8716 10.4919 21.8707 10.4919 21.8707L10.4942 21.8694L10.5009 21.8656L10.5229 21.8529C10.5413 21.8423 10.5672 21.8273 10.5999 21.8078C10.6654 21.769 10.7585 21.7127 10.8754 21.6394C11.1091 21.4927 11.4384 21.2773 11.8315 20.9964C12.6159 20.4359 13.6632 19.6082 14.7137 18.538C16.7947 16.4179 18.9955 13.2335 19.0001 9.21242C19.0283 8.01596 18.8176 6.82584 18.3803 5.71171C17.9415 4.59368 17.2833 3.57479 16.4446 2.71509C15.6059 1.85538 14.6035 1.17225 13.4967 0.705956C12.39 0.239739 11.2006 -0.000291207 9.99975 2.65134e-07C8.79889 -0.000291207 7.61011 0.239739 6.50345 0.705956C5.39659 1.17225 4.39426 1.85538 3.55552 2.71509C2.71679 3.57479 2.05861 4.59368 1.61978 5.71171C1.18248 6.82585 0.971817 8.01597 1.00007 9.21243C1.00459 13.2335 3.20538 16.418 5.28642 18.538C6.33688 19.6082 7.38424 20.4359 8.16866 20.9964C8.56171 21.2773 8.89099 21.4927 9.12468 21.6394C9.24158 21.7127 9.33474 21.769 9.40021 21.8078C9.43294 21.8273 9.45877 21.8423 9.4772 21.8529L9.49923 21.8656L9.50597 21.8694L9.50912 21.8712ZM7.27992 2.54908C8.14081 2.1864 9.06558 1.99971 9.99975 2C9.99976 2 9.99974 2 9.99975 2C10.9339 1.99971 11.8593 2.1864 12.7202 2.54908C13.5811 2.91175 14.3607 3.44307 15.013 4.11173C15.6654 4.78039 16.1773 5.57286 16.5186 6.44244C16.8599 7.31203 17.0237 8.24113 17.0004 9.175L17.0001 9.1875V9.2C17.0001 12.4731 15.2032 15.1842 13.2864 17.137C12.3369 18.1043 11.3842 18.8579 10.6687 19.3692C10.4096 19.5543 10.1829 19.7068 10.0001 19.8254C9.81724 19.7068 9.59047 19.5543 9.33146 19.3692C8.61588 18.8579 7.66324 18.1043 6.7137 17.137C4.79689 15.1842 3.00006 12.4731 3.00006 9.2V9.1875L2.99975 9.175C2.97639 8.24113 3.1402 7.31202 3.48151 6.44244C3.82282 5.57286 4.33473 4.78039 4.98709 4.11173C5.63944 3.44307 6.41902 2.91175 7.27992 2.54908Z" fill="#231F20"/>
</svg>
